<svg width="14" height="15" viewBox="0 0 14 15" fill="none" xmlns="http://www.w3.org/2000/svg">
<g id="Group 237">
<path id="Vector" d="M9.53846 7.75477V12.7271C9.53846 13.4301 8.94046 14.0001 8.1902 14.0001H2.34983C1.59801 14.0001 1 13.4301 1 12.7271V5.08936C1.00214 4.75236 1.14835 4.42973 1.40692 4.19143C1.66548 3.95313 2.01556 3.81838 2.38122 3.81641H5.33578C5.43805 3.81655 5.53926 3.83545 5.63352 3.87201C5.72778 3.90856 5.81321 3.96205 5.88482 4.02934L9.31119 7.24066C9.45697 7.37805 9.53855 7.5626 9.53846 7.75477Z" stroke="#434343" stroke-width="1.7" stroke-linejoin="round"/>
<path id="Vector_2" d="M5.1543 3.81641V6.91357C5.15714 7.12574 5.25316 7.32851 5.42184 7.47855C5.59052 7.62859 5.81848 7.714 6.05701 7.71653H9.53891" stroke="#434343" stroke-width="1.7" stroke-linecap="round" stroke-linejoin="round"/>
<path id="Vector_3" d="M4.46191 3.77736V2.27296C4.46406 1.93596 4.61026 1.61332 4.86883 1.37502C5.1274 1.13672 5.47747 1.00197 5.84314 1H8.79393C8.89676 1.00013 8.99854 1.01901 9.09342 1.05556C9.18829 1.0921 9.27438 1.14559 9.34673 1.21293L12.7731 4.42426C12.9188 4.56018 13.0004 4.74355 13.0004 4.9346V9.91071C13.0004 10.6137 12.4024 11.1837 11.6521 11.1837H9.73567" stroke="#434343" stroke-width="1.7" stroke-linejoin="round"/>
<path id="Vector_4" d="M8.8457 1V4.09716C8.8484 4.30933 8.93937 4.5121 9.09917 4.66215C9.25897 4.81219 9.47493 4.8976 9.70091 4.90013H12.9995" stroke="#434343" stroke-width="1.7" stroke-linecap="round" stroke-linejoin="round"/>
</g>
</svg>
