<svg width="14" height="15" viewBox="0 0 14 15" fill="none" xmlns="http://www.w3.org/2000/svg">
<g id="Group 236">
<path id="Vector" d="M10 6.08949V3.32662C10 2.70956 9.68393 2.11778 9.12132 1.68145C8.55871 1.24513 7.79565 1 7 1C6.20435 1 5.44129 1.24513 4.87868 1.68145C4.31607 2.11778 4 2.70956 4 3.32662V6.08949" stroke="#434343" stroke-width="1.7" stroke-linecap="round" stroke-linejoin="round"/>
<path id="Vector_2" d="M11.2 6.08984H2.8C1.80589 6.08984 1 6.71484 1 7.48582V12.6044C1 13.3754 1.80589 14.0004 2.8 14.0004H11.2C12.1941 14.0004 13 13.3754 13 12.6044V7.48582C13 6.71484 12.1941 6.08984 11.2 6.08984Z" stroke="#434343" stroke-width="1.7" stroke-linecap="round" stroke-linejoin="round"/>
</g>
</svg>
