<svg width="14" height="15" viewBox="0 0 14 15" fill="none" xmlns="http://www.w3.org/2000/svg">
<g id="Group 238">
<path id="Vector" d="M10.2727 10.3849C10.6048 9.50984 10.8182 8.54505 10.8182 7.49955C10.8182 6.43962 10.6136 5.49782 10.2727 4.61418M11.9091 12.549C12.5732 11.0161 13 9.66358 13 7.49955C13 5.33552 12.5909 3.99653 11.9091 2.45015M3.64716 4.61418H1.27273C1.2004 4.61418 1.13103 4.65217 1.07988 4.71981C1.02873 4.78745 1 4.87919 1 4.97485V10.0243C1 10.1199 1.02873 10.2116 1.07988 10.2793C1.13103 10.3469 1.2004 10.3849 1.27273 10.3849H3.64716C3.77322 10.385 3.89538 10.4428 3.99284 10.5486L7.11114 13.9299C7.1518 13.9694 7.19996 13.9933 7.25027 13.9988C7.30058 14.0043 7.35105 13.9912 7.39607 13.961C7.44109 13.9308 7.47889 13.8847 7.50526 13.8278C7.53164 13.7709 7.54555 13.7054 7.54545 13.6386V1.36047C7.54543 1.29379 7.53142 1.22843 7.505 1.17164C7.47857 1.11486 7.44076 1.06887 7.39576 1.03879C7.35077 1.00871 7.30035 0.995712 7.2501 1.00124C7.19986 1.00678 7.15175 1.03062 7.11114 1.07013L3.99284 4.45142C3.89528 4.55684 3.77314 4.61435 3.64716 4.61418Z" stroke="#434343" stroke-width="1.7" stroke-linecap="round" stroke-linejoin="round"/>
</g>
</svg>
