<svg width="26" height="21" viewBox="0 0 26 21" fill="none" xmlns="http://www.w3.org/2000/svg">
<path d="M17.3332 10.5C16.2195 10.5 15.1427 9.9784 14.2999 9.03181C13.4803 8.10851 12.9798 6.87727 12.8915 5.5659C12.7973 4.16704 13.2041 2.88068 14.0366 1.94318C14.8692 1.00568 16.0332 0.5 17.3332 0.5C18.624 0.5 19.7913 1.01477 20.6211 1.95C21.459 2.89432 21.8669 4.1784 21.7727 5.56533C21.6822 6.8784 21.1822 8.10908 20.3643 9.03124C19.5237 9.9784 18.4474 10.5 17.3332 10.5ZM24.4739 20.5H10.193C9.96336 20.5013 9.73654 20.4473 9.52994 20.3422C9.32335 20.2371 9.1425 20.0837 9.00131 19.8937C8.85154 19.6878 8.74811 19.4491 8.69877 19.1953C8.64943 18.9415 8.65546 18.6794 8.71639 18.4284C9.17247 16.5074 10.3024 14.9142 11.9837 13.8216C13.476 12.8523 15.3756 12.3182 17.3332 12.3182C19.3292 12.3182 21.179 12.8295 22.6799 13.7983C24.3651 14.8852 25.4966 16.4875 25.9505 18.4318C26.0107 18.683 26.0161 18.9451 25.9662 19.1988C25.9163 19.4524 25.8124 19.6909 25.6623 19.8966C25.5213 20.0856 25.3409 20.2383 25.1349 20.3429C24.9289 20.4475 24.7028 20.5012 24.4739 20.5ZM7.09573 10.7273C5.18962 10.7273 3.51371 8.86817 3.35825 6.58352C3.28134 5.41306 3.62909 4.33068 4.33325 3.53693C5.02983 2.75113 6.01241 2.31818 7.09573 2.31818C8.17906 2.31818 9.15406 2.75341 9.85443 3.54375C10.564 4.34375 10.9107 5.42386 10.8294 6.58465C10.674 8.86874 8.9986 10.7273 7.09573 10.7273ZM10.6523 12.5142C9.69951 12.0256 8.46289 11.7812 7.09628 11.7812C5.50053 11.7812 3.95083 12.2176 2.73209 13.0096C1.35031 13.9091 0.420811 15.2187 0.0454382 16.8C-0.00949462 17.0274 -0.0146903 17.2649 0.0302398 17.4948C0.0751699 17.7246 0.169063 17.9408 0.304895 18.1273C0.433783 18.3008 0.598902 18.4411 0.787554 18.5372C0.976205 18.6333 1.18336 18.6828 1.3931 18.6818H7.40557C7.50705 18.6818 7.6053 18.6444 7.68321 18.5762C7.76111 18.508 7.81372 18.4132 7.83186 18.3085C7.83781 18.2727 7.8454 18.2369 7.85406 18.2017C8.31339 16.2665 9.38968 14.6312 10.98 13.4392C11.0385 13.395 11.0855 13.3361 11.1169 13.268C11.1482 13.1999 11.1629 13.1246 11.1595 13.0491C11.1561 12.9735 11.1348 12.9001 11.0975 12.8353C11.0602 12.7706 11.0081 12.7167 10.9459 12.6784C10.8608 12.6261 10.7633 12.571 10.6523 12.5142Z" fill="black"/>
</svg>
