<svg width="11" height="12" viewBox="0 0 11 12" fill="none" xmlns="http://www.w3.org/2000/svg">
<path d="M10.8632 8.67188C10.0613 7.76531 9.49505 7.38422 9.49505 4.88437C9.49505 2.59406 8.22907 1.77984 7.18701 1.38422C7.11514 1.35559 7.05032 1.31295 6.99671 1.25903C6.94309 1.20511 6.90187 1.1411 6.87567 1.07109C6.69348 0.496875 6.18228 0 5.50067 0C4.81906 0 4.30687 0.496875 4.12567 1.07156C4.09963 1.14158 4.05852 1.20562 4.00498 1.25955C3.95144 1.31348 3.88666 1.35611 3.81482 1.38469C2.77178 1.78125 1.50678 2.59406 1.50678 4.88484C1.50678 7.38469 0.940078 7.76578 0.138156 8.67234C-0.1943 9.04734 0.106237 9.75047 0.687667 9.75047H10.3132C10.8912 9.75 11.1942 9.04688 10.8632 8.67188ZM3.74459 10.5C3.71697 10.4999 3.68962 10.5053 3.66434 10.5159C3.63905 10.5265 3.6164 10.5421 3.59786 10.5617C3.57933 10.5812 3.56532 10.6043 3.55675 10.6294C3.54819 10.6544 3.54526 10.681 3.54816 10.7072C3.65866 11.5847 4.47482 12 5.50067 12C6.51572 12 7.32451 11.5711 7.44826 10.71C7.45161 10.6836 7.44902 10.6567 7.44066 10.6313C7.4323 10.6059 7.41836 10.5825 7.39978 10.5626C7.38119 10.5427 7.35839 10.5269 7.33288 10.5161C7.30737 10.5053 7.27974 10.4998 7.25183 10.5H3.74459Z" fill="#575DFB"/>
</svg>
