<svg width="24" height="24" viewBox="0 0 24 24" fill="none" xmlns="http://www.w3.org/2000/svg">
<g id="Group 32">
<path id="Vector" d="M7 12C7 13.3261 7.52678 14.5979 8.46447 15.5355C9.40215 16.4732 10.6739 17 12 17C13.3261 17 14.5979 16.4732 15.5355 15.5355C16.4732 14.5979 17 13.3261 17 12C17 10.6739 16.4732 9.40215 15.5355 8.46447C14.5979 7.52678 13.3261 7 12 7C10.6739 7 9.40215 7.52678 8.46447 8.46447C7.52678 9.40215 7 10.6739 7 12Z" stroke="#575DFB" stroke-width="2.5" stroke-linecap="round" stroke-linejoin="round"/>
<path id="Vector_2" d="M16.4444 12.0128V13.6795C16.4444 14.4162 16.7371 15.1228 17.258 15.6437C17.779 16.1646 18.4855 16.4573 19.2222 16.4573C19.9589 16.4573 20.6655 16.1646 21.1864 15.6437C21.7073 15.1228 22 14.4162 22 13.6795V12.0128C22.0028 9.86407 21.3133 7.77156 20.0338 6.04529C18.7542 4.31901 16.9527 3.0508 14.896 2.42852C12.8393 1.80624 10.6368 1.86299 8.61493 2.59036C6.59301 3.31774 4.85916 4.67705 3.67023 6.46693C2.4813 8.25682 1.90052 10.3821 2.01395 12.5278C2.12737 14.6736 2.92895 16.7258 4.29995 18.3804C5.67094 20.0349 7.53843 21.2039 9.62577 21.7141C11.7131 22.2242 13.9092 22.0485 15.8889 21.2128" stroke="#575DFB" stroke-width="2.5" stroke-linecap="round" stroke-linejoin="round"/>
</g>
</svg>
