<svg width="24" height="24" viewBox="0 0 24 24" fill="none" xmlns="http://www.w3.org/2000/svg">
<path d="M20.5714 1.71421H19.7143V0.881175C19.7143 0.419923 19.3596 0.024029 18.8984 0.000993207C18.7825 -0.00459067 18.6667 0.0134133 18.5579 0.0539143C18.4492 0.0944154 18.3498 0.15657 18.2658 0.236613C18.1818 0.316655 18.115 0.412918 18.0693 0.519569C18.0236 0.62622 18 0.741039 18 0.857067V1.71421H6V0.881175C6 0.419923 5.64536 0.024029 5.18411 0.000993207C5.06821 -0.00459067 4.95239 0.0134133 4.84366 0.0539143C4.73493 0.0944154 4.63556 0.15657 4.55156 0.236613C4.46756 0.316655 4.40068 0.412918 4.35499 0.519569C4.30929 0.62622 4.28572 0.741039 4.28571 0.857067V1.71421H3.42857C2.51926 1.71421 1.64719 2.07544 1.00421 2.71842C0.361223 3.36141 0 4.23348 0 5.1428V5.78566C0 5.84249 0.0225765 5.89699 0.0627629 5.93718C0.102949 5.97737 0.157454 5.99994 0.214286 5.99994H23.7857C23.8425 5.99994 23.8971 5.97737 23.9372 5.93718C23.9774 5.89699 24 5.84249 24 5.78566V5.1428C24 4.23348 23.6388 3.36141 22.9958 2.71842C22.3528 2.07544 21.4807 1.71421 20.5714 1.71421ZM23.8393 7.71423H0.160714C0.11809 7.71423 0.077212 7.73116 0.0470722 7.7613C0.0169324 7.79144 0 7.83232 0 7.87495V20.5714C0 21.4807 0.361223 22.3528 1.00421 22.9958C1.64719 23.6388 2.51926 24 3.42857 24H20.5714C21.4807 24 22.3528 23.6388 22.9958 22.9958C23.6388 22.3528 24 21.4807 24 20.5714V7.87495C24 7.83232 23.9831 7.79144 23.9529 7.7613C23.9228 7.73116 23.8819 7.71423 23.8393 7.71423ZM10.2857 14.7551C10.2857 15.1611 10.1245 15.5504 9.83743 15.8374C9.5504 16.1244 9.1611 16.2857 8.75518 16.2857H4.95911C4.55318 16.2857 4.16389 16.1244 3.87685 15.8374C3.58982 15.5504 3.42857 15.1611 3.42857 14.7551V10.9591C3.42857 10.5531 3.58982 10.1638 3.87685 9.87681C4.16389 9.58978 4.55318 9.42852 4.95911 9.42852H8.75518C9.1611 9.42852 9.5504 9.58978 9.83743 9.87681C10.1245 10.1638 10.2857 10.5531 10.2857 10.9591V14.7551Z" fill="black"/>
</svg>
