<svg width="20" height="21" viewBox="0 0 20 21" fill="none" xmlns="http://www.w3.org/2000/svg">
<path d="M13.8077 10.9297V17.8145C13.8077 18.7879 12.9107 19.577 11.7853 19.577H3.02475C1.89701 19.577 1 18.7879 1 17.8145V7.23912C1.00321 6.7725 1.22253 6.32578 1.61038 5.99582C1.99823 5.66587 2.52334 5.4793 3.07183 5.47656H7.50367C7.65707 5.47676 7.80889 5.50293 7.95028 5.55355C8.09168 5.60417 8.21981 5.67822 8.32722 5.77139L13.4668 10.2178C13.6855 10.4081 13.8078 10.6636 13.8077 10.9297Z" stroke="#656565" stroke-width="1.7" stroke-linejoin="round"/>
<path d="M7.23145 5.47656V9.76494C7.23571 10.0587 7.37974 10.3395 7.63276 10.5472C7.88578 10.755 8.22772 10.8732 8.58552 10.8767H13.8084" stroke="#656565" stroke-width="1.7" stroke-linecap="round" stroke-linejoin="round"/>
<path d="M6.19238 5.42273V3.33971C6.1956 2.87309 6.41491 2.42636 6.80276 2.09641C7.19061 1.76646 7.71572 1.57988 8.26422 1.57715H12.6904C12.8446 1.57733 12.9973 1.60348 13.1396 1.65408C13.2819 1.70468 13.4111 1.77873 13.5196 1.87198L18.6592 6.31843C18.8777 6.50662 19.0002 6.76052 19.0001 7.02505V13.915C19.0001 14.8885 18.1031 15.6776 16.9777 15.6776H14.103" stroke="#656565" stroke-width="1.7" stroke-linejoin="round"/>
<path d="M12.7686 1.57715V5.86552C12.7726 6.1593 12.909 6.44006 13.1488 6.64781C13.3885 6.85556 13.7124 6.97382 14.0514 6.97732H18.9993" stroke="#656565" stroke-width="1.7" stroke-linecap="round" stroke-linejoin="round"/>
</svg>
