<svg width="23" height="22" viewBox="0 0 23 22" fill="none" xmlns="http://www.w3.org/2000/svg">
<path d="M20.0961 16.7266C20.0384 16.5189 20.1654 16.2304 20.2865 16.0227C20.3235 15.9609 20.364 15.9012 20.4077 15.8439C21.444 14.304 21.9983 12.4905 22 10.6344C22.0173 5.31529 17.5288 1 11.9789 1C7.13848 1 3.10004 4.29416 2.15389 8.66714C2.01235 9.31528 1.94078 9.97675 1.94043 10.6402C1.94043 15.9651 6.2558 20.3957 11.8058 20.3957C12.6885 20.3957 13.8769 20.1304 14.5288 19.9515C15.1808 19.7727 15.8269 19.5361 15.9942 19.4727C16.1657 19.408 16.3475 19.3748 16.5308 19.3746C16.7307 19.3738 16.9288 19.4131 17.1134 19.49L20.3846 20.6496C20.4563 20.6799 20.5321 20.6994 20.6096 20.7073C20.732 20.7073 20.8494 20.6586 20.9359 20.5721C21.0225 20.4855 21.0711 20.3681 21.0711 20.2457C21.0671 20.1929 21.0574 20.1407 21.0423 20.09L20.0961 16.7266Z" fill="none" stroke="white" stroke-width="2" stroke-miterlimit="10" stroke-linecap="round"/>
</svg>
