<svg width="26" height="26" viewBox="0 0 26 26" fill="none" xmlns="http://www.w3.org/2000/svg">
<path d="M2.06503 11.6157C1.30836 12.9751 0.942322 14.5172 1.00738 16.0716C1.07244 17.6259 1.56606 19.1321 2.43368 20.4234C2.56695 20.6248 2.64195 20.7805 2.61887 20.8849C2.5958 20.9894 1.93061 24.4543 1.93061 24.4543C1.91461 24.5354 1.92068 24.6193 1.94818 24.6972C1.97568 24.7751 2.02361 24.8443 2.08695 24.8974C2.17148 24.9647 2.27658 25.001 2.38464 25C2.44239 25.0002 2.49955 24.9884 2.55253 24.9654L5.7954 23.6962C6.01859 23.6082 6.26757 23.6124 6.48771 23.7078C7.58039 24.1335 8.78847 24.4001 9.99711 24.4001C11.619 24.4018 13.2124 23.974 14.6154 23.1603" fill="none"/>
<path d="M2.06503 11.6157C1.30836 12.9751 0.942322 14.5172 1.00738 16.0716C1.07244 17.6259 1.56606 19.1321 2.43368 20.4234C2.56695 20.6248 2.64195 20.7805 2.61887 20.8849C2.5958 20.9894 1.93061 24.4543 1.93061 24.4543C1.91461 24.5354 1.92068 24.6193 1.94818 24.6972C1.97568 24.7751 2.02361 24.8443 2.08695 24.8974C2.17148 24.9647 2.27658 25.001 2.38464 25C2.44239 25.0002 2.49955 24.9884 2.55253 24.9654L5.7954 23.6962C6.01859 23.6082 6.26757 23.6124 6.48771 23.7078C7.58039 24.1335 8.78847 24.4001 9.99711 24.4001C11.619 24.4018 13.2124 23.974 14.6154 23.1603" stroke="white" stroke-width="2" stroke-miterlimit="10" stroke-linecap="round"/>
<path d="M23.0961 16.7266C23.0384 16.5189 23.1654 16.2304 23.2865 16.0227C23.3235 15.9609 23.364 15.9012 23.4077 15.8439C24.444 14.304 24.9983 12.4905 25 10.6344C25.0173 5.31529 20.5288 1 14.9789 1C10.1385 1 6.10004 4.29416 5.15389 8.66714C5.01235 9.31528 4.94078 9.97675 4.94043 10.6402C4.94043 15.9651 9.2558 20.3957 14.8058 20.3957C15.6885 20.3957 16.8769 20.1304 17.5288 19.9515C18.1808 19.7727 18.8269 19.5361 18.9942 19.4727C19.1657 19.408 19.3475 19.3748 19.5308 19.3746C19.7307 19.3738 19.9288 19.4131 20.1134 19.49L23.3846 20.6496C23.4563 20.6799 23.5321 20.6994 23.6096 20.7073C23.732 20.7073 23.8494 20.6586 23.9359 20.5721C24.0225 20.4855 24.0711 20.3681 24.0711 20.2457C24.0671 20.1929 24.0574 20.1407 24.0423 20.09L23.0961 16.7266Z" fill="none" stroke="white" stroke-width="2" stroke-miterlimit="10" stroke-linecap="round"/>
</svg>
