<svg width="20" height="21" viewBox="0 0 20 21" fill="none" xmlns="http://www.w3.org/2000/svg">
<path d="M17.5719 13.3723C17.5286 13.2166 17.6238 13.0002 17.7146 12.8444C17.7424 12.7981 17.7727 12.7533 17.8055 12.7103C18.5827 11.5554 18.9985 10.1952 18.9997 8.8031C19.0127 4.81368 15.6464 1.57715 11.4839 1.57715C7.85362 1.57715 4.82479 4.04782 4.11517 7.32762C4.00902 7.81374 3.95534 8.30986 3.95508 8.80743C3.95508 12.8012 7.1916 16.1243 11.3541 16.1243C12.0161 16.1243 12.9074 15.9252 13.3964 15.7911C13.8853 15.6569 14.3699 15.4795 14.4954 15.4319C14.624 15.3835 14.7604 15.3585 14.8978 15.3584C15.0478 15.3578 15.1964 15.3872 15.3348 15.4449L17.7882 16.3146C17.842 16.3374 17.8988 16.352 17.9569 16.3579C18.0487 16.3579 18.1368 16.3214 18.2017 16.2565C18.2666 16.1916 18.3031 16.1036 18.3031 16.0118C18.3001 15.9722 18.2928 15.933 18.2815 15.8949L17.5719 13.3723Z" stroke="#656565" stroke-width="2" stroke-miterlimit="10" stroke-linecap="round"/>
<path d="M1.79877 9.53857C1.23127 10.5581 0.956741 11.7147 1.00554 12.8805C1.05433 14.0463 1.42455 15.1759 2.07526 16.1445C2.17521 16.2955 2.23146 16.4123 2.21416 16.4906C2.19685 16.569 1.69796 19.1677 1.69796 19.1677C1.68596 19.2285 1.69051 19.2914 1.71113 19.3499C1.73176 19.4083 1.76771 19.4602 1.81522 19.5C1.87861 19.5505 1.95743 19.5777 2.03848 19.577C2.0818 19.5771 2.12466 19.5683 2.1644 19.5511L4.59655 18.5991C4.76394 18.5332 4.95068 18.5363 5.11578 18.6078C5.93529 18.9271 6.84135 19.127 7.74784 19.127C8.96424 19.1283 10.1593 18.8075 11.2115 18.1972" stroke="#656565" stroke-width="2" stroke-miterlimit="10" stroke-linecap="round"/>
</svg>
