<svg width="18" height="19" viewBox="0 0 18 19" fill="none" xmlns="http://www.w3.org/2000/svg">
<path fill-rule="evenodd" clip-rule="evenodd" d="M3 0.577148C1.34315 0.577148 0 1.92029 0 3.57715V15.5771C0 17.234 1.34315 18.5771 3 18.5771H15C16.6569 18.5771 18 17.234 18 15.5771V3.57715C18 1.92029 16.6569 0.577148 15 0.577148H3ZM10 5.57715C10 5.02486 9.55228 4.57715 9 4.57715C8.44772 4.57715 8 5.02486 8 5.57715V8.57715H5C4.44772 8.57715 4 9.02486 4 9.57715C4 10.1294 4.44772 10.5771 5 10.5771H8V13.5771C8 14.1294 8.44772 14.5771 9 14.5771C9.55228 14.5771 10 14.1294 10 13.5771V10.5771H13C13.5523 10.5771 14 10.1294 14 9.57715C14 9.02486 13.5523 8.57715 13 8.57715H10V5.57715Z" fill="#656565"/>
</svg>
