<svg width="24" height="24" viewBox="0 0 24 24" fill="none" xmlns="http://www.w3.org/2000/svg">
<path d="M23.1429 16.8H15.4286C15.2012 16.8 14.9832 16.8843 14.8225 17.0343C14.6617 17.1843 14.5714 17.3878 14.5714 17.6C14.5714 18.2365 14.3005 18.847 13.8183 19.2971C13.336 19.7471 12.682 20 12 20C11.318 20 10.664 19.7471 10.1817 19.2971C9.69949 18.847 9.42857 18.2365 9.42857 17.6C9.42857 17.3878 9.33827 17.1843 9.17752 17.0343C9.01677 16.8843 8.79876 16.8 8.57143 16.8H0.857143C0.629815 16.8 0.411797 16.8843 0.251052 17.0343C0.0903061 17.1843 2.19257e-07 17.3878 2.19257e-07 17.6V20.8C0.00099282 21.6484 0.362535 22.4618 1.0053 23.0617C1.64807 23.6616 2.51956 23.9991 3.42857 24H20.5714C21.4804 23.9991 22.3519 23.6616 22.9947 23.0617C23.6375 22.4618 23.999 21.6484 24 20.8V17.6C24 17.3878 23.9097 17.1843 23.7489 17.0343C23.5882 16.8843 23.3702 16.8 23.1429 16.8ZM23.9711 8.594L22.2648 2.6225C21.9252 0.9795 20.6539 0 18.8571 0H5.14286C4.24286 0 3.48214 0.2345 2.8875 0.697C2.29286 1.1595 1.91036 1.8 1.73571 2.62L0.0289288 8.594C0.00967269 8.66119 -5.32492e-05 8.73045 2.19257e-07 8.8V11.2C2.19257e-07 12.9645 1.53804 15.2 3.42857 15.2H20.5714C22.462 15.2 24 12.9645 24 11.2V8.8C24.0001 8.73045 23.9903 8.66119 23.9711 8.594ZM21.8877 8H15.4286C15.2026 7.99894 14.9853 8.08164 14.8246 8.22996C14.6639 8.37827 14.5728 8.58006 14.5714 8.791C14.5714 9.42752 14.3005 10.038 13.8183 10.4881C13.336 10.9381 12.682 11.191 12 11.191C11.318 11.191 10.664 10.9381 10.1817 10.4881C9.69949 10.038 9.42857 9.42752 9.42857 8.791C9.42715 8.58006 9.33609 8.37827 9.17537 8.22996C9.01466 8.08164 8.79744 7.99894 8.57143 8H2.11232C2.09588 7.99999 2.07966 7.99645 2.06493 7.98965C2.05019 7.98286 2.03732 7.97299 2.02733 7.9608C2.01733 7.94862 2.01047 7.93446 2.00728 7.9194C2.00409 7.90435 2.00465 7.88882 2.00893 7.874L3.41304 2.95C3.60321 2.0295 4.15286 1.6 5.14286 1.6H18.8571C19.853 1.6 20.4021 2.0265 20.5848 2.9425L21.9911 7.874C21.9953 7.88882 21.9959 7.90435 21.9927 7.9194C21.9895 7.93446 21.9827 7.94862 21.9727 7.9608C21.9627 7.97299 21.9498 7.98286 21.9351 7.98965C21.9203 7.99645 21.9041 7.99999 21.8877 8Z" fill="black"/>
</svg>
