<svg width="20" height="21" viewBox="0 0 20 21" fill="none" xmlns="http://www.w3.org/2000/svg">
<path d="M1 13.7915V17.6486C1.0016 18.1597 1.22093 18.6494 1.61008 19.0107C1.99923 19.3721 2.52658 19.5757 3.07692 19.5772H16.9231C17.4734 19.5757 18.0008 19.3721 18.3899 19.0107C18.7791 18.6494 18.9984 18.1597 19 17.6486V13.7915" stroke="#656565" stroke-width="2" stroke-linejoin="round"/>
<path d="M1 13.7915H7.23077C7.23077 14.4735 7.52253 15.1275 8.04186 15.6098C8.56119 16.092 9.26555 16.3629 10 16.3629C10.7344 16.3629 11.4388 16.092 11.9581 15.6098C12.4775 15.1275 12.7692 14.4735 12.7692 13.7915H19" stroke="#656565" stroke-width="2" stroke-linecap="round" stroke-linejoin="round"/>
<path d="M15.5385 1.57715H4.46154C3.33654 1.57715 2.60096 2.13965 2.38462 3.18429L1 8.00572V11.8629C1.0016 12.3739 1.22093 12.8636 1.61008 13.2249C1.99923 13.5863 2.52658 13.7899 3.07692 13.7914H16.9231C17.4734 13.7899 18.0008 13.5863 18.3899 13.2249C18.7791 12.8636 18.9984 12.3739 19 11.8629V8.00572L17.6154 3.18429C17.399 2.09947 16.6202 1.57715 15.5385 1.57715Z" stroke="#656565" stroke-width="2" stroke-linejoin="round"/>
<path d="M1 8.00586H7.23077C7.23077 8.68784 7.52253 9.3419 8.04186 9.82413C8.56119 10.3064 9.26555 10.5773 10 10.5773C10.7344 10.5773 11.4388 10.3064 11.9581 9.82413C12.4775 9.3419 12.7692 8.68784 12.7692 8.00586H19" stroke="#656565" stroke-width="2" stroke-linecap="round" stroke-linejoin="round"/>
</svg>
