<svg width="36" height="36" viewBox="0 0 36 36" fill="none" xmlns="http://www.w3.org/2000/svg">
<g clip-path="url(#clip0_803_53192)">
<path d="M29.625 36H6.375C2.85 36 0 33.0769 0 29.4615V6.53846C0 2.92308 2.85 0 6.375 0H29.625C33.15 0 36 2.92308 36 6.53846V29.4615C36 33.0769 33.15 36 29.625 36Z" fill="#FF9A00"/>
<path d="M29.055 34.4617H6.945C3.945 34.4617 1.5 31.954 1.5 28.877V7.12319C1.5 4.04627 3.945 1.53857 6.945 1.53857H29.04C32.055 1.53857 34.485 4.04627 34.485 7.12319V28.8617C34.5 31.954 32.055 34.4617 29.055 34.4617Z" fill="#320000"/>
<path d="M26.3432 11.2321C26.3432 12.2554 25.6372 12.9163 24.682 12.9163C23.706 12.9163 23.0415 12.1914 23.0415 11.2321C23.0415 10.2514 23.7268 9.54785 24.682 9.54785C25.6787 9.54785 26.3432 10.2514 26.3432 11.2321ZM23.1661 14.4726H26.2394V26.3474H23.1661V14.4726Z" fill="#FF9A00"/>
<path d="M12.9269 9.95312H16.7893L21.2539 26.3476H18.0352L16.8931 22.0198H12.6154L11.5148 26.3476H8.40002L12.9269 10.3582V9.95312ZM14.0067 15.8799L13.0515 19.6321H16.457L15.5018 15.9012C15.2526 14.8779 14.9827 13.5561 14.775 12.5541H14.7127C14.5051 13.5774 14.2351 14.9205 14.0067 15.8799Z" fill="#FF9A00"/>
</g>
<defs>
<clipPath id="clip0_803_53192">
<rect width="36" height="36" fill="white"/>
</clipPath>
</defs>
</svg>
