<svg width="18" height="18" viewBox="0 0 18 18" fill="none" xmlns="http://www.w3.org/2000/svg">
<path d="M6.00002 12.0001L12 6.00006M8.00002 3.00006L8.46302 2.46406C9.40083 1.52639 10.6727 0.999662 11.9989 0.999756C13.325 0.99985 14.5968 1.52676 15.5345 2.46456C16.4722 3.40237 16.9989 4.67425 16.9988 6.00042C16.9987 7.32658 16.4718 8.59839 15.534 9.53606L15 10.0001M10 15.0001L9.60302 15.5341C8.65427 16.4723 7.37381 16.9984 6.03952 16.9984C4.70523 16.9984 3.42477 16.4723 2.47602 15.5341C2.00838 15.0717 1.63711 14.5211 1.38373 13.9142C1.13035 13.3073 0.999878 12.6562 0.999878 11.9986C0.999878 11.3409 1.13035 10.6898 1.38373 10.0829C1.63711 9.47604 2.00838 8.92546 2.47602 8.46306L3.00002 8.00006" stroke="#575DFB" stroke-width="2" stroke-linecap="round" stroke-linejoin="round"/>
</svg>
