<svg width="24" height="24" viewBox="0 0 24 24" fill="none" xmlns="http://www.w3.org/2000/svg">
<path d="M2.83285 18.2423C2.83285 18.2456 2.83285 18.2517 2.8291 18.2602C2.83051 18.2545 2.83145 18.2484 2.83285 18.2423ZM20.62 19.0125C20.4657 19.0092 20.3133 18.9774 20.1705 18.9188L17.5089 17.9752L17.4893 17.9672C17.4312 17.943 17.3689 17.9309 17.306 17.9316C17.248 17.9316 17.1905 17.9421 17.1363 17.9625C17.0716 17.9869 16.4889 18.2058 15.8777 18.3736C15.5463 18.4645 14.3927 18.7613 13.4669 18.7613C11.1007 18.7613 8.88816 17.8519 7.2377 16.2005C6.4314 15.3991 5.79206 14.4458 5.35669 13.3957C4.92131 12.3456 4.69855 11.2196 4.70129 10.0828C4.70127 9.4905 4.76508 8.8999 4.8916 8.32125C5.30363 6.41719 6.39488 4.68516 7.96426 3.44625C9.57411 2.18346 11.5615 1.49805 13.6075 1.5C16.0549 1.5 18.3354 2.4375 20.0294 4.13344C21.6307 5.73985 22.5082 7.85204 22.5011 10.0805C22.4997 11.7364 22.0053 13.3543 21.0808 14.7281L21.0719 14.7413L21.0372 14.7881C21.0293 14.7989 21.0213 14.8092 21.0138 14.82L21.0068 14.8327C20.9881 14.8644 20.9712 14.8971 20.9561 14.9306L21.6939 17.5528C21.7266 17.661 21.7442 17.7731 21.7464 17.8861C21.7466 18.0341 21.7176 18.1806 21.6611 18.3174C21.6045 18.4541 21.5216 18.5784 21.4169 18.683C21.3123 18.7876 21.1881 18.8706 21.0513 18.9271C20.9146 18.9837 20.768 19.0127 20.62 19.0125Z" fill="black"/>
<path d="M14.0564 19.9403C14.008 19.8461 13.9398 19.7634 13.8566 19.6979C13.7734 19.6324 13.677 19.5855 13.5741 19.5606C13.3031 19.4889 12.9872 19.501 12.7458 19.4832C10.4664 19.3247 8.32148 18.3465 6.70737 16.7293C5.2724 15.3024 4.33982 13.4479 4.05002 11.4451C3.9844 10.9885 3.9844 10.8751 3.9844 10.8751C3.98437 10.7228 3.93796 10.5741 3.85134 10.4488C3.76472 10.3235 3.64199 10.2275 3.4995 10.1737C3.357 10.1198 3.20149 10.1106 3.05365 10.1474C2.90581 10.1841 2.77265 10.2649 2.6719 10.3792C2.6719 10.3792 2.30252 10.7814 2.12815 11.1849C1.63909 12.3118 1.43053 13.5404 1.52033 14.7654C1.61014 15.9905 1.99563 17.1756 2.64377 18.219C2.76565 18.422 2.76565 18.5157 2.73846 18.7267C2.61049 19.3881 2.38643 20.5548 2.26971 21.1599C2.23107 21.3562 2.24544 21.5592 2.31135 21.748C2.37727 21.9369 2.49234 22.1047 2.64471 22.2343L2.66627 22.2526C2.86784 22.4127 3.11762 22.4999 3.37502 22.5001C3.51981 22.5002 3.66318 22.4717 3.7969 22.4162L6.30518 21.4482C6.39154 21.4154 6.48694 21.4154 6.5733 21.4482C7.56096 21.8157 8.58893 22.0107 9.56299 22.0107C10.7767 22.0119 11.9756 21.7452 13.0744 21.2298C13.3303 21.1098 13.7306 20.9795 13.965 20.7085C14.0537 20.6035 14.1097 20.4747 14.1259 20.3381C14.1421 20.2015 14.118 20.0632 14.0564 19.9403Z" fill="black"/>
</svg>
