<svg width="28" height="28" viewBox="0 0 28 28" fill="none" xmlns="http://www.w3.org/2000/svg">
<path d="M24.4998 25.375C24.3849 25.3752 24.271 25.3526 24.1649 25.3086C24.0587 25.2646 23.9623 25.2 23.8813 25.1185L2.88127 4.11852C2.7241 3.95309 2.63778 3.73281 2.6407 3.50464C2.64362 3.27647 2.73556 3.05847 2.89691 2.89712C3.05826 2.73577 3.27626 2.64383 3.50442 2.64091C3.73259 2.63799 3.95287 2.72432 4.1183 2.88148L25.1183 23.8815C25.2406 24.0039 25.3239 24.1597 25.3576 24.3294C25.3913 24.4991 25.374 24.675 25.3078 24.8348C25.2416 24.9946 25.1295 25.1313 24.9857 25.2274C24.8419 25.3236 24.6728 25.3749 24.4998 25.375ZM24.0667 18.6654C23.9759 18.556 23.8867 18.4466 23.7992 18.3411C22.5961 16.8859 21.8682 16.0076 21.8682 11.888C21.8682 9.75516 21.358 8.00516 20.3523 6.69266C19.6107 5.72305 18.6083 4.9875 17.2871 4.44391C17.27 4.43445 17.2549 4.42204 17.2422 4.40727C16.767 2.81586 15.4665 1.75 13.9998 1.75C12.5331 1.75 11.2331 2.81586 10.7579 4.40562C10.7452 4.41986 10.7303 4.43187 10.7136 4.44117C10.2998 4.61041 9.89973 4.81154 9.51705 5.04273C9.46049 5.07722 9.4125 5.12409 9.3767 5.17982C9.3409 5.23555 9.31822 5.29869 9.31037 5.36446C9.30252 5.43024 9.30971 5.49693 9.3314 5.55952C9.35309 5.62211 9.38871 5.67896 9.43557 5.72578L23.7517 20.0397C23.8161 20.1041 23.899 20.1469 23.9888 20.162C24.0787 20.177 24.171 20.1637 24.2529 20.1237C24.3348 20.0838 24.4022 20.0193 24.4457 19.9393C24.4891 19.8592 24.5065 19.7675 24.4954 19.6771C24.4532 19.3055 24.3043 18.9541 24.0667 18.6654ZM6.13244 11.8863C6.13244 16.0076 5.40564 16.8859 4.20143 18.3395C4.11393 18.445 4.02478 18.5522 3.934 18.6637C3.6995 18.9466 3.55093 19.2906 3.50586 19.6552C3.4608 20.0198 3.52112 20.3897 3.67971 20.7211C4.01713 21.432 4.73627 21.8734 5.55713 21.8734H17.106C17.1926 21.8734 17.2773 21.8478 17.3493 21.7997C17.4213 21.7517 17.4774 21.6833 17.5106 21.6033C17.5437 21.5233 17.5524 21.4353 17.5355 21.3504C17.5185 21.2655 17.4768 21.1875 17.4156 21.1263L6.91557 10.6263C6.85652 10.5675 6.78189 10.5267 6.70046 10.5088C6.61903 10.491 6.53419 10.4968 6.45593 10.5255C6.37767 10.5542 6.30925 10.6047 6.25872 10.671C6.20819 10.7373 6.17766 10.8167 6.17072 10.8998C6.1452 11.2166 6.13244 11.5454 6.13244 11.8863ZM13.9998 26.25C14.79 26.2494 15.5654 26.0348 16.2436 25.6292C16.9218 25.2236 17.4776 24.642 17.852 23.946C17.8696 23.9127 17.8783 23.8753 17.8773 23.8376C17.8762 23.7999 17.8654 23.7631 17.8459 23.7308C17.8264 23.6985 17.7989 23.6718 17.7661 23.6532C17.7332 23.6347 17.6961 23.625 17.6584 23.625H10.3423C10.3045 23.6249 10.2673 23.6345 10.2344 23.653C10.2015 23.6715 10.1739 23.6982 10.1543 23.7305C10.1348 23.7629 10.1239 23.7997 10.1229 23.8375C10.1218 23.8752 10.1305 23.9126 10.1481 23.946C10.5225 24.6419 11.0782 25.2234 11.7563 25.6291C12.4344 26.0347 13.2096 26.2493 13.9998 26.25Z" fill="black"/>
</svg>
