<svg width="18" height="18" viewBox="0 0 18 18" fill="none" xmlns="http://www.w3.org/2000/svg">
<path d="M6.53731 18L6.17911 15.12C5.98508 15.045 5.80239 14.955 5.63105 14.85C5.45911 14.745 5.29105 14.6325 5.12687 14.5125L2.46269 15.6375L0 11.3625L2.30597 9.6075C2.29105 9.5025 2.28358 9.4011 2.28358 9.3033V8.6958C2.28358 8.5986 2.29105 8.4975 2.30597 8.3925L0 6.6375L2.46269 2.3625L5.12687 3.4875C5.29105 3.3675 5.46269 3.255 5.64179 3.15C5.8209 3.045 6 2.955 6.17911 2.88L6.53731 0H11.4627L11.8209 2.88C12.0149 2.955 12.1979 3.045 12.3699 3.15C12.5412 3.255 12.709 3.3675 12.8731 3.4875L15.5373 2.3625L18 6.6375L15.694 8.3925C15.709 8.4975 15.7164 8.5986 15.7164 8.6958V9.3033C15.7164 9.4011 15.7015 9.5025 15.6716 9.6075L17.9776 11.3625L15.5149 15.6375L12.8731 14.5125C12.709 14.6325 12.5373 14.745 12.3582 14.85C12.1791 14.955 12 15.045 11.8209 15.12L11.4627 18H6.53731ZM9.04478 12.15C9.91045 12.15 10.6493 11.8425 11.2612 11.2275C11.8731 10.6125 12.1791 9.87 12.1791 9C12.1791 8.13 11.8731 7.3875 11.2612 6.7725C10.6493 6.1575 9.91045 5.85 9.04478 5.85C8.16418 5.85 7.42149 6.1575 6.81672 6.7725C6.21254 7.3875 5.91045 8.13 5.91045 9C5.91045 9.87 6.21254 10.6125 6.81672 11.2275C7.42149 11.8425 8.16418 12.15 9.04478 12.15ZM9.04478 10.35C8.67164 10.35 8.35463 10.2186 8.09373 9.9558C7.83224 9.6936 7.70149 9.375 7.70149 9C7.70149 8.625 7.83224 8.3064 8.09373 8.0442C8.35463 7.7814 8.67164 7.65 9.04478 7.65C9.41791 7.65 9.73522 7.7814 9.99672 8.0442C10.2576 8.3064 10.3881 8.625 10.3881 9C10.3881 9.375 10.2576 9.6936 9.99672 9.9558C9.73522 10.2186 9.41791 10.35 9.04478 10.35ZM8.10448 16.2H9.87314L10.1866 13.815C10.6493 13.695 11.0785 13.5186 11.4743 13.2858C11.8696 13.0536 12.2313 12.7725 12.5597 12.4425L14.7761 13.365L15.6493 11.835L13.7239 10.3725C13.7985 10.1625 13.8507 9.9411 13.8806 9.7083C13.9104 9.4761 13.9254 9.24 13.9254 9C13.9254 8.76 13.9104 8.5236 13.8806 8.2908C13.8507 8.0586 13.7985 7.8375 13.7239 7.6275L15.6493 6.165L14.7761 4.635L12.5597 5.58C12.2313 5.235 11.8696 4.9461 11.4743 4.7133C11.0785 4.4811 10.6493 4.305 10.1866 4.185L9.89552 1.8H8.12687L7.81343 4.185C7.35075 4.305 6.92179 4.4811 6.52657 4.7133C6.13075 4.9461 5.76866 5.2275 5.4403 5.5575L3.22388 4.635L2.35075 6.165L4.27612 7.605C4.20149 7.83 4.14925 8.055 4.1194 8.28C4.08955 8.505 4.07463 8.745 4.07463 9C4.07463 9.24 4.08955 9.4725 4.1194 9.6975C4.14925 9.9225 4.20149 10.1475 4.27612 10.3725L2.35075 11.835L3.22388 13.365L5.4403 12.42C5.76866 12.765 6.13075 13.0536 6.52657 13.2858C6.92179 13.5186 7.35075 13.695 7.81343 13.815L8.10448 16.2Z" fill="#656565"/>
</svg>
