<svg width="18" height="24" viewBox="0 0 18 24" fill="none" xmlns="http://www.w3.org/2000/svg">
<path d="M13 8.61538H15C15.5304 8.61538 16.0391 8.83825 16.4142 9.23497C16.7893 9.63168 17 10.1697 17 10.7308V20.8846C17 21.4457 16.7893 21.9837 16.4142 22.3804C16.0391 22.7771 15.5304 23 15 23H3C2.46957 23 1.96086 22.7771 1.58579 22.3804C1.21071 21.9837 1 21.4457 1 20.8846V10.7308C1 10.1697 1.21071 9.63168 1.58579 9.23497C1.96086 8.83825 2.46957 8.61538 3 8.61538H5M13 5.23077L9 1M9 1L5 5.23077M9 1V15.4375" stroke="black" stroke-width="2" stroke-linecap="round" stroke-linejoin="round"/>
</svg>
