<?xml version="1.0" standalone="no"?>
<!DOCTYPE svg PUBLIC "-//W3C//DTD SVG 20010904//EN"
 "http://www.w3.org/TR/2001/REC-SVG-20010904/DTD/svg10.dtd">
<svg version="1.0" xmlns="http://www.w3.org/2000/svg"
 width="18"  viewBox="0 0 50.000000 50.000000"
 preserveAspectRatio="xMidYMid meet">

<g transform="translate(0.000000,50.000000) scale(0.100000,-0.100000)"
fill="#000000" stroke="none">
<path d="M280 352 l0 -39 -56 -12 c-77 -18 -145 -83 -168 -160 -28 -95 -17
-123 19 -48 23 48 80 82 158 93 l47 6 0 -41 c0 -22 3 -41 6 -41 9 0 174 132
174 140 0 8 -165 140 -174 140 -3 0 -6 -17 -6 -38z m88 -48 c31 -26 57 -50 57
-54 0 -8 -110 -100 -119 -100 -3 0 -6 14 -6 31 l0 32 -62 -7 c-36 -3 -79 -16
-106 -31 -24 -14 -46 -25 -49 -25 -2 0 6 18 19 41 27 49 87 86 151 95 44 6 47
9 47 35 0 16 3 29 6 29 3 0 31 -21 62 -46z"/>
</g>
</svg>
