<svg width="18" height="15" viewBox="0 0 18 15" fill="none" xmlns="http://www.w3.org/2000/svg">
<path d="M9.81818 3.75C9.81818 1.67812 8.35364 0 6.54545 0C4.73727 0 3.27273 1.67812 3.27273 3.75C3.27273 5.82188 4.73727 7.5 6.54545 7.5C8.35364 7.5 9.81818 5.82188 9.81818 3.75ZM8.18182 3.75C8.18182 4.78125 7.44545 5.625 6.54545 5.625C5.64545 5.625 4.90909 4.78125 4.90909 3.75C4.90909 2.71875 5.64545 1.875 6.54545 1.875C7.44545 1.875 8.18182 2.71875 8.18182 3.75ZM0 13.125V15H13.0909V13.125C13.0909 10.6312 8.73 9.375 6.54545 9.375C4.36091 9.375 0 10.6312 0 13.125ZM1.63636 13.125C1.8 12.4594 4.33636 11.25 6.54545 11.25C8.74636 11.25 11.2745 12.45 11.4545 13.125H1.63636ZM15.5455 10.3125V7.5H18V5.625H15.5455V2.8125H13.9091V5.625H11.4545V7.5H13.9091V10.3125H15.5455Z" fill="#656565"/>
</svg>
