<svg width="20" height="21" viewBox="0 0 20 21" fill="none" xmlns="http://www.w3.org/2000/svg">
<path d="M14.9091 14.5717C15.4072 13.36 15.7273 12.0241 15.7273 10.5765C15.7273 9.10894 15.4205 7.8049 14.9091 6.58139M17.3636 17.568C18.3598 15.4456 19 13.5729 19 10.5765C19 7.58017 18.3864 5.72618 17.3636 3.58504M4.97074 6.58139H1.40909C1.30059 6.58139 1.19654 6.63401 1.11982 6.72766C1.0431 6.82131 1 6.94834 1 7.08078V14.0723C1 14.2047 1.0431 14.3317 1.11982 14.4254C1.19654 14.519 1.30059 14.5717 1.40909 14.5717H4.97074C5.15984 14.5718 5.34306 14.6518 5.48926 14.7983L10.1667 19.4801C10.2277 19.5348 10.2999 19.5678 10.3754 19.5755C10.4509 19.5831 10.5266 19.565 10.5941 19.5232C10.6616 19.4814 10.7183 19.4175 10.7579 19.3387C10.7975 19.2599 10.8183 19.1692 10.8182 19.0768V2.07626C10.8181 1.98393 10.7971 1.89343 10.7575 1.81481C10.7179 1.73618 10.6611 1.6725 10.5936 1.63085C10.5262 1.58921 10.4505 1.57121 10.3752 1.57887C10.2998 1.58653 10.2276 1.61954 10.1667 1.67425L5.48926 6.35604C5.34293 6.502 5.15971 6.58163 4.97074 6.58139Z" stroke="#656565" stroke-width="1.7" stroke-linecap="round" stroke-linejoin="round"/>
</svg>
