<svg width="18" height="18" viewBox="0 0 18 18" fill="none" xmlns="http://www.w3.org/2000/svg">
<g id="bold">
<path id="Vector" fill-rule="evenodd" clip-rule="evenodd" d="M3.59961 2.4748C3.59961 2.29578 3.67073 2.12409 3.79731 1.99751C3.9239 1.87092 4.09559 1.7998 4.27461 1.7998H9.98331C10.8444 1.80001 11.6756 2.11614 12.3192 2.68825C12.9628 3.26037 13.3742 4.04873 13.4753 4.9039C13.4938 5.02025 13.5019 5.13802 13.4996 5.2558L13.5005 5.3161C13.5011 5.86002 13.3753 6.39663 13.1331 6.88361C12.8908 7.3706 12.5388 7.79465 12.1046 8.1223C13.0241 8.45693 13.7964 9.10466 14.286 9.95184C14.7756 10.799 14.9512 11.7915 14.7821 12.7553C14.613 13.719 14.1099 14.5925 13.3611 15.2223C12.6123 15.8522 11.6656 16.1982 10.6871 16.1998H4.27461C4.09559 16.1998 3.9239 16.1287 3.79731 16.0021C3.67073 15.8755 3.59961 15.7038 3.59961 15.5248V8.5498C3.5995 8.48334 3.6092 8.41723 3.62841 8.3536C3.60929 8.29027 3.59959 8.22446 3.59961 8.1583V2.4748ZM5.84961 7.4833H9.08331C9.3383 7.4833 9.5908 7.43308 9.82639 7.3355C10.062 7.23792 10.276 7.09489 10.4563 6.91458C10.6366 6.73427 10.7797 6.52021 10.8773 6.28463C10.9748 6.04905 11.0251 5.79655 11.0251 5.54155C11.0251 5.28656 10.9748 5.03406 10.8773 4.79848C10.7797 4.5629 10.6366 4.34884 10.4563 4.16853C10.276 3.98822 10.062 3.84519 9.82639 3.74761C9.5908 3.65003 9.3383 3.5998 9.08331 3.5998H5.84961V7.4833ZM9.67461 9.2248H5.84961V14.1748H9.67461C10.331 14.1748 10.9605 13.914 11.4247 13.4499C11.8889 12.9857 12.1496 12.3562 12.1496 11.6998C12.1496 11.0434 11.8889 10.4139 11.4247 9.94971C10.9605 9.48556 10.331 9.2248 9.67461 9.2248Z" fill="#1D1C1D"/>
</g>
</svg>
