<svg width="18" height="18" viewBox="0 0 18 18" fill="none" xmlns="http://www.w3.org/2000/svg">
<g id="bullet-list">
<path id="Vector" fill-rule="evenodd" clip-rule="evenodd" d="M3.5998 2.6998C3.5998 2.9385 3.50498 3.16742 3.3362 3.3362C3.16742 3.50498 2.9385 3.5998 2.6998 3.5998C2.46111 3.5998 2.23219 3.50498 2.06341 3.3362C1.89463 3.16742 1.7998 2.9385 1.7998 2.6998C1.7998 2.46111 1.89463 2.23219 2.06341 2.06341C2.23219 1.89463 2.46111 1.7998 2.6998 1.7998C2.9385 1.7998 3.16742 1.89463 3.3362 2.06341C3.50498 2.23219 3.5998 2.46111 3.5998 2.6998ZM6.2998 2.6998C6.2998 2.52078 6.37092 2.34909 6.49751 2.22251C6.62409 2.09592 6.79578 2.0248 6.9748 2.0248H15.9748C16.1538 2.0248 16.3255 2.09592 16.4521 2.22251C16.5787 2.34909 16.6498 2.52078 16.6498 2.6998C16.6498 2.87883 16.5787 3.05051 16.4521 3.1771C16.3255 3.30369 16.1538 3.3748 15.9748 3.3748H6.9748C6.79578 3.3748 6.62409 3.30369 6.49751 3.1771C6.37092 3.05051 6.2998 2.87883 6.2998 2.6998ZM6.9748 8.3248C6.79578 8.3248 6.62409 8.39592 6.49751 8.52251C6.37092 8.64909 6.2998 8.82078 6.2998 8.9998C6.2998 9.17882 6.37092 9.35051 6.49751 9.4771C6.62409 9.60369 6.79578 9.6748 6.9748 9.6748H15.9748C16.1538 9.6748 16.3255 9.60369 16.4521 9.4771C16.5787 9.35051 16.6498 9.17882 16.6498 8.9998C16.6498 8.82078 16.5787 8.64909 16.4521 8.52251C16.3255 8.39592 16.1538 8.3248 15.9748 8.3248H6.9748ZM6.9748 14.6248C6.79578 14.6248 6.62409 14.6959 6.49751 14.8225C6.37092 14.9491 6.2998 15.1208 6.2998 15.2998C6.2998 15.4788 6.37092 15.6505 6.49751 15.7771C6.62409 15.9037 6.79578 15.9748 6.9748 15.9748H15.9748C16.1538 15.9748 16.3255 15.9037 16.4521 15.7771C16.5787 15.6505 16.6498 15.4788 16.6498 15.2998C16.6498 15.1208 16.5787 14.9491 16.4521 14.8225C16.3255 14.6959 16.1538 14.6248 15.9748 14.6248H6.9748ZM2.6998 9.8998C2.9385 9.8998 3.16742 9.80498 3.3362 9.6362C3.50498 9.46742 3.5998 9.2385 3.5998 8.9998C3.5998 8.76111 3.50498 8.53219 3.3362 8.36341C3.16742 8.19463 2.9385 8.0998 2.6998 8.0998C2.46111 8.0998 2.23219 8.19463 2.06341 8.36341C1.89463 8.53219 1.7998 8.76111 1.7998 8.9998C1.7998 9.2385 1.89463 9.46742 2.06341 9.6362C2.23219 9.80498 2.46111 9.8998 2.6998 9.8998ZM2.6998 16.1998C2.9385 16.1998 3.16742 16.105 3.3362 15.9362C3.50498 15.7674 3.5998 15.5385 3.5998 15.2998C3.5998 15.0611 3.50498 14.8322 3.3362 14.6634C3.16742 14.4946 2.9385 14.3998 2.6998 14.3998C2.46111 14.3998 2.23219 14.4946 2.06341 14.6634C1.89463 14.8322 1.7998 15.0611 1.7998 15.2998C1.7998 15.5385 1.89463 15.7674 2.06341 15.9362C2.23219 16.105 2.46111 16.1998 2.6998 16.1998Z" fill="#1D1C1D"/>
</g>
</svg>
