<svg width="18" height="18" viewBox="0 0 18 18" fill="none" xmlns="http://www.w3.org/2000/svg">
<g id="code" clip-path="url(#clip0_1890_1182)">
<path id="Vector" fill-rule="evenodd" clip-rule="evenodd" d="M11.232 2.63354C11.274 2.4593 11.245 2.2755 11.1515 2.12258C11.058 1.96966 10.9076 1.86015 10.7334 1.81814C10.5591 1.77613 10.3753 1.80506 10.2224 1.89857C10.0695 1.99207 9.95997 2.1425 9.91796 2.31674L6.76796 15.3667C6.72595 15.541 6.75488 15.7248 6.84839 15.8777C6.94189 16.0306 7.09232 16.1401 7.26656 16.1821C7.44081 16.2242 7.62461 16.1952 7.77753 16.1017C7.93044 16.0082 8.03995 15.8578 8.08196 15.6835L11.232 2.63354ZM5.18666 4.68374C5.05632 4.56108 4.8826 4.49521 4.7037 4.50061C4.5248 4.50601 4.35537 4.58224 4.23266 4.71254L0.632664 8.53754C0.51483 8.66275 0.449219 8.82821 0.449219 9.00014C0.449219 9.17208 0.51483 9.33753 0.632664 9.46274L4.23266 13.2877C4.35624 13.4143 4.52456 13.4873 4.70141 13.491C4.87825 13.4947 5.04949 13.4289 5.17828 13.3076C5.30708 13.1864 5.38313 13.0194 5.39008 12.8427C5.39704 12.6659 5.33433 12.4935 5.21546 12.3625L2.05196 9.00014L5.21636 5.63774C5.33902 5.5074 5.4049 5.33368 5.3995 5.15478C5.3941 4.97588 5.31696 4.80645 5.18666 4.68374ZM12.8115 4.68374C12.9418 4.56108 13.1155 4.49521 13.2944 4.50061C13.4733 4.50601 13.6428 4.58224 13.7655 4.71254L17.3655 8.53754C17.4833 8.66275 17.5489 8.82821 17.5489 9.00014C17.5489 9.17208 17.4833 9.33753 17.3655 9.46274L13.7655 13.2877C13.6419 13.4143 13.4736 13.4873 13.2967 13.491C13.1199 13.4947 12.9486 13.4289 12.8198 13.3076C12.6911 13.1864 12.615 13.0194 12.608 12.8427C12.6011 12.6659 12.6638 12.4935 12.7827 12.3625L15.948 9.00014L12.7836 5.63774C12.6609 5.5074 12.595 5.33368 12.6004 5.15478C12.6058 4.97588 12.6821 4.80645 12.8124 4.68374H12.8115Z" fill="#1D1C1D"/>
</g>
<defs>
<clipPath id="clip0_1890_1182">
<rect width="18" height="18" fill="white"/>
</clipPath>
</defs>
</svg>
