<svg width="19" height="18" viewBox="0 0 19 18" fill="none" xmlns="http://www.w3.org/2000/svg">
<g id="emoji-1" clip-path="url(#clip0_2045_1132)">
<path id="Vector" fill-rule="evenodd" clip-rule="evenodd" d="M2.88613 8.9999C2.88613 7.20969 3.59729 5.4928 4.86316 4.22693C6.12903 2.96106 7.84592 2.2499 9.63613 2.2499C11.4263 2.2499 13.1432 2.96106 14.4091 4.22693C15.675 5.4928 16.3861 7.20969 16.3861 8.9999C16.3861 10.7901 15.675 12.507 14.4091 13.7729C13.1432 15.0387 11.4263 15.7499 9.63613 15.7499C7.84592 15.7499 6.12903 15.0387 4.86316 13.7729C3.59729 12.507 2.88613 10.7901 2.88613 8.9999ZM9.63613 0.899902C7.48788 0.899902 5.42761 1.75329 3.90857 3.27234C2.38952 4.79138 1.53613 6.85165 1.53613 8.9999C1.53613 11.1482 2.38952 13.2084 3.90857 14.7275C5.42761 16.2465 7.48788 17.0999 9.63613 17.0999C11.7844 17.0999 13.8447 16.2465 15.3637 14.7275C16.8827 13.2084 17.7361 11.1482 17.7361 8.9999C17.7361 6.85165 16.8827 4.79138 15.3637 3.27234C13.8447 1.75329 11.7844 0.899902 9.63613 0.899902ZM7.38613 8.5499C7.74417 8.5499 8.08755 8.40767 8.34073 8.1545C8.5939 7.90132 8.73613 7.55794 8.73613 7.1999C8.73613 6.84186 8.5939 6.49848 8.34073 6.24531C8.08755 5.99213 7.74417 5.8499 7.38613 5.8499C7.02809 5.8499 6.68471 5.99213 6.43154 6.24531C6.17836 6.49848 6.03613 6.84186 6.03613 7.1999C6.03613 7.55794 6.17836 7.90132 6.43154 8.1545C6.68471 8.40767 7.02809 8.5499 7.38613 8.5499ZM13.2361 7.1999C13.2361 7.37719 13.2012 7.55273 13.1334 7.71652C13.0655 7.88031 12.9661 8.02914 12.8407 8.1545C12.7154 8.27986 12.5665 8.3793 12.4028 8.44714C12.239 8.51498 12.0634 8.5499 11.8861 8.5499C11.7088 8.5499 11.5333 8.51498 11.3695 8.44714C11.2057 8.3793 11.0569 8.27986 10.9315 8.1545C10.8062 8.02914 10.7067 7.88031 10.6389 7.71652C10.5711 7.55273 10.5361 7.37719 10.5361 7.1999C10.5361 6.84186 10.6784 6.49848 10.9315 6.24531C11.1847 5.99213 11.5281 5.8499 11.8861 5.8499C12.2442 5.8499 12.5876 5.99213 12.8407 6.24531C13.0939 6.49848 13.2361 6.84186 13.2361 7.1999ZM7.48963 10.5893C7.46281 10.5041 7.41934 10.425 7.36174 10.3567C7.30413 10.2884 7.23353 10.2322 7.15405 10.1914C7.07456 10.1506 6.98776 10.126 6.89868 10.119C6.80961 10.112 6.72003 10.1227 6.63514 10.1506C6.55024 10.1785 6.47173 10.2229 6.40416 10.2814C6.33658 10.3398 6.28128 10.4111 6.24147 10.4911C6.20165 10.5711 6.17812 10.6582 6.17222 10.7474C6.16633 10.8365 6.17819 10.926 6.20713 11.0105C6.75253 12.6719 8.22133 13.4999 9.66043 13.4999C11.0995 13.4999 12.5674 12.6719 13.1146 11.0105C13.1436 10.926 13.1554 10.8365 13.1495 10.7474C13.1436 10.6582 13.1201 10.5711 13.0803 10.4911C13.0405 10.4111 12.9852 10.3398 12.9176 10.2814C12.85 10.2229 12.7715 10.1785 12.6866 10.1506C12.6017 10.1227 12.5122 10.112 12.4231 10.119C12.334 10.126 12.2472 10.1506 12.1677 10.1914C12.0882 10.2322 12.0176 10.2884 11.96 10.3567C11.9024 10.425 11.8589 10.5041 11.8321 10.5893C11.4901 11.6288 10.5901 12.1499 9.66043 12.1499C8.73073 12.1499 7.83163 11.6279 7.48963 10.5893Z" fill="white"/>
</g>
<defs>
<clipPath id="clip0_2045_1132">
<rect width="18" height="18" fill="white" transform="translate(0.635742)"/>
</clipPath>
</defs>
</svg>
