<svg width="19" height="18" viewBox="0 0 19 18" fill="none" xmlns="http://www.w3.org/2000/svg">
<g id="formatting" clip-path="url(#clip0_2045_906)">
<path id="Vector" fill-rule="evenodd" clip-rule="evenodd" d="M6.88272 3.55693C6.46962 2.31673 4.71012 2.33023 4.31502 3.57673L0.667323 15.0967C0.617212 15.2663 0.635641 15.4488 0.718649 15.6049C0.801656 15.761 0.942613 15.8783 1.11121 15.9316C1.27981 15.9849 1.46259 15.9699 1.62026 15.8899C1.77792 15.8098 1.89787 15.6711 1.95432 15.5035L2.94522 12.3751H8.39922L9.44592 15.5134C9.47305 15.5986 9.51682 15.6776 9.57471 15.7457C9.63259 15.8138 9.70343 15.8698 9.78311 15.9103C9.86279 15.9508 9.94973 15.9751 10.0389 15.9817C10.128 15.9884 10.2176 15.9773 10.3024 15.949C10.3872 15.9208 10.4656 15.876 10.5329 15.8172C10.6003 15.7584 10.6553 15.6868 10.6948 15.6066C10.7342 15.5264 10.7574 15.4391 10.7628 15.3499C10.7683 15.2607 10.756 15.1713 10.7266 15.0868L6.88362 3.55783L6.88272 3.55693ZM7.94922 11.0251L5.60202 3.98443L3.37272 11.0251H7.94922ZM13.5274 6.04183C14.4058 5.7183 15.3663 5.69268 16.2607 5.96893C16.9485 6.18124 17.5502 6.60828 17.9776 7.18747C18.4051 7.76665 18.6357 8.46751 18.6358 9.18733V15.3001C18.6358 15.4792 18.5647 15.6508 18.4381 15.7774C18.3115 15.904 18.1398 15.9751 17.9608 15.9751C17.7818 15.9751 17.6101 15.904 17.4835 15.7774C17.3569 15.6508 17.2858 15.4792 17.2858 15.3001V14.6296C16.5214 15.2027 15.6503 15.6173 14.7235 15.8491C14.2023 15.9794 13.654 15.9511 13.1489 15.7678C12.6438 15.5846 12.2049 15.2547 11.8885 14.8204C10.399 12.7729 11.8615 9.90013 14.3941 9.90013H17.2858V9.18733C17.2858 8.30173 16.7089 7.51963 15.8629 7.25863C15.2512 7.06977 14.5943 7.08748 13.9936 7.30903L13.7758 7.38913C13.4944 7.49276 13.2399 7.65835 13.0311 7.87365C12.8224 8.08896 12.6647 8.34845 12.5698 8.63293L12.5266 8.76343C12.4683 8.93105 12.3463 9.06896 12.1871 9.14731C12.0278 9.22566 11.8442 9.23814 11.6758 9.18205C11.5074 9.12597 11.3679 9.00582 11.2874 8.84763C11.207 8.68945 11.1921 8.50594 11.2459 8.33683L11.2891 8.20633C11.448 7.72985 11.712 7.29521 12.0616 6.93456C12.4112 6.57391 12.8374 6.29649 13.3087 6.12283L13.5274 6.04183ZM17.2858 11.2501H14.3941C12.9658 11.2501 12.1405 12.871 12.9811 14.0266C13.3024 14.4685 13.8631 14.6719 14.3959 14.5396C15.2074 14.3367 15.9656 13.9612 16.6189 13.4389L17.2858 12.9052V11.2501Z" fill="white"/>
</g>
<defs>
<clipPath id="clip0_2045_906">
<rect width="18" height="18" fill="white" transform="translate(0.635742)"/>
</clipPath>
</defs>
</svg>
