<svg width="18" height="18" viewBox="0 0 18 18" fill="none" xmlns="http://www.w3.org/2000/svg">
<g id="italic">
<path id="Vector" fill-rule="evenodd" clip-rule="evenodd" d="M6.29961 2.4748C6.29961 2.29578 6.37072 2.12409 6.49731 1.99751C6.6239 1.87092 6.79559 1.7998 6.97461 1.7998H13.7246C13.9036 1.7998 14.0753 1.87092 14.2019 1.99751C14.3285 2.12409 14.3996 2.29578 14.3996 2.4748C14.3996 2.65383 14.3285 2.82551 14.2019 2.9521C14.0753 3.07869 13.9036 3.1498 13.7246 3.1498H11.0696L8.72961 14.8498H11.0246C11.2036 14.8498 11.3753 14.9209 11.5019 15.0475C11.6285 15.1741 11.6996 15.3458 11.6996 15.5248C11.6996 15.7038 11.6285 15.8755 11.5019 16.0021C11.3753 16.1287 11.2036 16.1998 11.0246 16.1998H4.27461C4.09559 16.1998 3.9239 16.1287 3.79731 16.0021C3.67073 15.8755 3.59961 15.7038 3.59961 15.5248C3.59961 15.3458 3.67073 15.1741 3.79731 15.0475C3.9239 14.9209 4.09559 14.8498 4.27461 14.8498H6.92961L9.26961 3.1498H6.97461C6.79559 3.1498 6.6239 3.07869 6.49731 2.9521C6.37072 2.82551 6.29961 2.65383 6.29961 2.4748Z" fill="#1D1C1D"/>
</g>
</svg>
