<svg width="18" height="18" viewBox="0 0 18 18" fill="none" xmlns="http://www.w3.org/2000/svg">
<g id="link">
<path id="Vector" fill-rule="evenodd" clip-rule="evenodd" d="M11.0757 3.37931C11.5398 2.91518 12.1694 2.65444 12.8257 2.65444C13.4821 2.65444 14.1116 2.91518 14.5758 3.37931L14.6208 3.42431C14.8507 3.65415 15.0332 3.92704 15.1576 4.2274C15.2821 4.52776 15.3461 4.84969 15.3461 5.17481C15.3461 5.49993 15.2821 5.82186 15.1576 6.12222C15.0332 6.42257 14.8507 6.69547 14.6208 6.92531L11.7588 9.78731C11.5219 10.0242 11.2393 10.2104 10.9283 10.3349C10.6173 10.4593 10.2842 10.5193 9.94929 10.5112C9.61438 10.5032 9.2846 10.4272 8.97993 10.2879C8.67525 10.1486 8.40202 9.9489 8.1768 9.70091L8.1498 9.67031C8.09011 9.60471 8.01809 9.55152 7.93784 9.51375C7.8576 9.47599 7.7707 9.45441 7.68212 9.45023C7.50321 9.44179 7.32827 9.50477 7.1958 9.62531C7.06332 9.74585 6.98416 9.91408 6.97572 10.093C6.96728 10.2719 7.03026 10.4468 7.1508 10.5793L7.1778 10.609C7.52595 10.9921 7.94823 11.3005 8.41906 11.5156C8.88989 11.7306 9.39948 11.8479 9.91697 11.8603C10.4345 11.8726 10.9491 11.7799 11.4296 11.5875C11.9102 11.3952 12.3467 11.1073 12.7128 10.7413L15.5748 7.87931C16.292 7.162 16.6949 6.18917 16.6949 5.17481C16.6949 4.16045 16.292 3.18762 15.5748 2.47031L15.5298 2.42531C14.8125 1.70809 13.8397 1.30518 12.8253 1.30518C11.8109 1.30518 10.8381 1.70809 10.1208 2.42531L8.5233 4.02281C8.45698 4.0846 8.40379 4.15913 8.36689 4.24192C8.33 4.32472 8.31016 4.41411 8.30856 4.50474C8.30696 4.59537 8.32364 4.6854 8.35759 4.76945C8.39154 4.8535 8.44207 4.92985 8.50616 4.99394C8.57026 5.05804 8.64661 5.10857 8.73066 5.14252C8.81471 5.17647 8.90473 5.19314 8.99537 5.19154C9.086 5.18994 9.17538 5.1701 9.25818 5.13321C9.34098 5.09632 9.4155 5.04313 9.4773 4.97681L11.0757 3.37931ZM6.9258 14.6203C6.69596 14.8503 6.42306 15.0327 6.12271 15.1571C5.82235 15.2816 5.50042 15.3456 5.1753 15.3456C4.85018 15.3456 4.52824 15.2816 4.22789 15.1571C3.92753 15.0327 3.65464 14.8503 3.4248 14.6203L3.3798 14.5753C3.14985 14.3455 2.96744 14.0726 2.84298 13.7722C2.71853 13.4719 2.65448 13.1499 2.65448 12.8248C2.65448 12.4997 2.71853 12.1778 2.84298 11.8774C2.96744 11.577 3.14985 11.3041 3.3798 11.0743L6.2418 8.21231C6.47872 7.97546 6.76126 7.78917 7.07229 7.66474C7.38333 7.5403 7.71639 7.48031 8.0513 7.48838C8.38621 7.49646 8.71599 7.57245 9.02067 7.71173C9.32534 7.85102 9.59857 8.05071 9.8238 8.29871L9.8508 8.32841C9.97122 8.46088 10.1393 8.5401 10.3182 8.54862C10.497 8.55714 10.6719 8.49428 10.8043 8.37386C10.9368 8.25344 11.016 8.08532 11.0246 7.9065C11.0331 7.72767 10.9702 7.55278 10.8498 7.42031L10.8228 7.38971C10.4746 7.00671 10.0523 6.69838 9.58139 6.48337C9.11052 6.26837 8.60091 6.15118 8.08343 6.1389C7.56595 6.12661 7.05135 6.21949 6.57082 6.4119C6.09028 6.60432 5.65379 6.89227 5.2878 7.25831L2.4258 10.1203C1.70858 10.8376 1.30566 11.8104 1.30566 12.8248C1.30566 13.8392 1.70858 14.812 2.4258 15.5293L2.4708 15.5743C3.18811 16.2915 4.16093 16.6944 5.1753 16.6944C6.18966 16.6944 7.16249 16.2915 7.8798 15.5743L9.4773 13.9768C9.59653 13.8488 9.66144 13.6796 9.65835 13.5047C9.65527 13.3299 9.58443 13.163 9.46076 13.0393C9.33708 12.9157 9.17024 12.8448 8.99537 12.8417C8.8205 12.8387 8.65125 12.9036 8.5233 13.0228L6.9258 14.6203Z" fill="#1D1C1D"/>
</g>
</svg>
