<svg width="19" height="18" viewBox="0 0 19 18" fill="none" xmlns="http://www.w3.org/2000/svg">
<g id="mention" clip-path="url(#clip0_2045_1083)">
<path id="Vector" fill-rule="evenodd" clip-rule="evenodd" d="M2.88614 8.9998C2.88614 7.20959 3.5973 5.4927 4.86317 4.22683C6.12904 2.96096 7.84593 2.2498 9.63614 2.2498C11.4264 2.2498 13.1432 2.96096 14.4091 4.22683C15.675 5.4927 16.3861 7.20959 16.3861 8.9998V9.5803C16.3861 10.5019 15.6391 11.2498 14.7166 11.2498C14.4433 11.2498 14.1812 11.1412 13.988 10.948C13.7947 10.7547 13.6861 10.4926 13.6861 10.2193V6.0748C13.6869 5.90291 13.6221 5.73719 13.5049 5.61146C13.3876 5.48573 13.2269 5.40946 13.0553 5.39821C12.8838 5.38696 12.7144 5.44157 12.5818 5.55091C12.4492 5.66025 12.3632 5.81608 12.3415 5.9866C11.7401 5.44665 10.9909 5.09898 10.1903 4.98833C9.38968 4.87769 8.57426 5.00912 7.84895 5.36572C7.12363 5.72233 6.52161 6.28779 6.12032 6.98937C5.71903 7.69094 5.53683 8.49654 5.59716 9.30252C5.65749 10.1085 5.95759 10.878 6.45886 11.512C6.96013 12.146 7.63963 12.6156 8.40995 12.8602C9.18027 13.1049 10.0062 13.1134 10.7814 12.8848C11.5566 12.6562 12.2457 12.2009 12.76 11.5774C12.9793 11.8934 13.272 12.1516 13.6129 12.3296C13.9538 12.5077 14.3329 12.6004 14.7175 12.5998C15.5182 12.5996 16.286 12.2813 16.8521 11.7151C17.4181 11.1489 17.7361 10.381 17.7361 9.5803V8.9998C17.736 7.1854 17.1267 5.42358 16.0059 3.99675C14.8851 2.56993 13.3176 1.56073 11.5549 1.13093C9.79211 0.701135 7.93608 0.875628 6.28431 1.62644C4.63254 2.37725 3.28068 3.6609 2.44544 5.27163C1.61019 6.88235 1.33992 8.72687 1.67797 10.5095C2.01601 12.2921 2.94278 13.9097 4.30972 15.1028C5.67666 16.2959 7.4046 16.9955 9.21657 17.0895C11.0285 17.1835 12.8196 16.6664 14.3026 15.6211C14.3773 15.5709 14.4411 15.5063 14.4904 15.4311C14.5397 15.3559 14.5735 15.2716 14.5897 15.1831C14.606 15.0947 14.6044 15.0039 14.5851 14.9161C14.5658 14.8282 14.5291 14.7452 14.4772 14.6717C14.4254 14.5982 14.3594 14.5359 14.283 14.4883C14.2067 14.4407 14.1217 14.4089 14.0329 14.3946C13.9441 14.3803 13.8534 14.384 13.766 14.4052C13.6786 14.4265 13.5964 14.4651 13.5241 14.5186C12.5133 15.2309 11.3261 15.6518 10.0923 15.7354C8.85852 15.819 7.62547 15.562 6.52776 14.9925C5.43005 14.423 4.50988 13.563 3.86769 12.5062C3.22549 11.4494 2.88596 10.2364 2.88614 8.9998ZM9.63614 11.6998C10.3522 11.6998 11.039 11.4153 11.5453 10.909C12.0517 10.4026 12.3361 9.71589 12.3361 8.9998C12.3361 8.28372 12.0517 7.59696 11.5453 7.09062C11.039 6.58427 10.3522 6.2998 9.63614 6.2998C8.92006 6.2998 8.2333 6.58427 7.72695 7.09062C7.22061 7.59696 6.93614 8.28372 6.93614 8.9998C6.93614 9.71589 7.22061 10.4026 7.72695 10.909C8.2333 11.4153 8.92006 11.6998 9.63614 11.6998Z" fill="white"/>
</g>
<defs>
<clipPath id="clip0_2045_1083">
<rect width="18" height="18" fill="white" transform="translate(0.635742)"/>
</clipPath>
</defs>
</svg>
