<svg width="18" height="18" viewBox="0 0 18 18" fill="none" xmlns="http://www.w3.org/2000/svg">
<g id="number-list">
<path id="Vector" fill-rule="evenodd" clip-rule="evenodd" d="M3.41241 1.88469C3.47036 1.92639 3.51756 1.98127 3.55011 2.0448C3.58266 2.10834 3.59963 2.17871 3.59961 2.25009V5.40009H4.49961C4.61896 5.40009 4.73342 5.4475 4.81781 5.5319C4.9022 5.61629 4.94961 5.73075 4.94961 5.85009C4.94961 5.96944 4.9022 6.0839 4.81781 6.16829C4.73342 6.25268 4.61896 6.30009 4.49961 6.30009H1.79961C1.68026 6.30009 1.5658 6.25268 1.48141 6.16829C1.39702 6.0839 1.34961 5.96944 1.34961 5.85009C1.34961 5.73075 1.39702 5.61629 1.48141 5.5319C1.5658 5.4475 1.68026 5.40009 1.79961 5.40009H2.69961V2.87469L1.94181 3.12669C1.83007 3.15928 1.71006 3.14731 1.60696 3.0933C1.50386 3.03928 1.42571 2.94742 1.3889 2.837C1.3521 2.72658 1.3595 2.6062 1.40957 2.50112C1.45964 2.39605 1.54847 2.31446 1.65741 2.27349L3.00741 1.82349C3.07494 1.80093 3.14687 1.79471 3.21728 1.80534C3.28768 1.81598 3.35456 1.84318 3.41241 1.88469ZM6.97461 3.15009C6.79559 3.15009 6.6239 3.22121 6.49731 3.3478C6.37072 3.47438 6.29961 3.64607 6.29961 3.82509C6.29961 4.00412 6.37072 4.1758 6.49731 4.30239C6.6239 4.42898 6.79559 4.50009 6.97461 4.50009H15.9746C16.1536 4.50009 16.3253 4.42898 16.4519 4.30239C16.5785 4.1758 16.6496 4.00412 16.6496 3.82509C16.6496 3.64607 16.5785 3.47438 16.4519 3.3478C16.3253 3.22121 16.1536 3.15009 15.9746 3.15009H6.97461ZM6.29961 9.67509C6.29961 9.49607 6.37072 9.32438 6.49731 9.1978C6.6239 9.07121 6.79559 9.00009 6.97461 9.00009H15.9746C16.1536 9.00009 16.3253 9.07121 16.4519 9.1978C16.5785 9.32438 16.6496 9.49607 16.6496 9.67509C16.6496 9.85412 16.5785 10.0258 16.4519 10.1524C16.3253 10.279 16.1536 10.3501 15.9746 10.3501H6.97461C6.79559 10.3501 6.6239 10.279 6.49731 10.1524C6.37072 10.0258 6.29961 9.85412 6.29961 9.67509ZM6.29961 15.5251C6.29961 15.3461 6.37072 15.1744 6.49731 15.0478C6.6239 14.9212 6.79559 14.8501 6.97461 14.8501H15.9746C16.1536 14.8501 16.3253 14.9212 16.4519 15.0478C16.5785 15.1744 16.6496 15.3461 16.6496 15.5251C16.6496 15.7041 16.5785 15.8758 16.4519 16.0024C16.3253 16.129 16.1536 16.2001 15.9746 16.2001H6.97461C6.79559 16.2001 6.6239 16.129 6.49731 16.0024C6.37072 15.8758 6.29961 15.7041 6.29961 15.5251ZM2.43591 12.5011C2.51989 12.3917 2.62797 12.3031 2.75175 12.2422C2.87552 12.1813 3.01167 12.1498 3.14961 12.1501C3.59061 12.1501 3.82461 12.4921 3.82461 12.8251C3.82461 12.8827 3.79491 12.9997 3.66891 13.1932C3.51031 13.4221 3.33139 13.6363 3.13431 13.8331C2.90391 14.0734 2.63751 14.3263 2.35131 14.5963L2.27211 14.6719C2.00471 14.9215 1.74098 15.175 1.48101 15.4324C1.41822 15.4954 1.37551 15.5756 1.35825 15.6628C1.341 15.75 1.34999 15.8404 1.38408 15.9226C1.41816 16.0047 1.47583 16.0749 1.54978 16.1243C1.62374 16.1737 1.71068 16.2001 1.79961 16.2001H4.49961C4.61896 16.2001 4.73342 16.1527 4.81781 16.0683C4.9022 15.9839 4.94961 15.8694 4.94961 15.7501C4.94961 15.6307 4.9022 15.5163 4.81781 15.4319C4.73342 15.3475 4.61896 15.3001 4.49961 15.3001H2.91741L2.96961 15.2506C3.25401 14.9824 3.53571 14.7151 3.78321 14.4568C4.01967 14.2192 4.23386 13.9604 4.42311 13.6837C4.58511 13.4344 4.72461 13.1401 4.72461 12.8251C4.72461 12.1168 4.20081 11.2501 3.14961 11.2501C2.80808 11.2497 2.4735 11.3466 2.18502 11.5294C1.89653 11.7122 1.66608 11.9734 1.52061 12.2824C1.49538 12.3359 1.48092 12.3938 1.47808 12.4529C1.47523 12.5119 1.48405 12.571 1.50402 12.6266C1.52399 12.6823 1.55473 12.7335 1.59449 12.7773C1.63424 12.821 1.68223 12.8566 1.73571 12.8818C1.78919 12.907 1.84712 12.9215 1.90618 12.9243C1.96525 12.9272 2.0243 12.9184 2.07996 12.8984C2.13562 12.8784 2.1868 12.8477 2.23058 12.8079C2.27436 12.7682 2.30988 12.7202 2.33511 12.6667C2.36262 12.608 2.39642 12.5525 2.43591 12.5011Z" fill="#1D1C1D"/>
</g>
</svg>
