<svg width="25" height="23" viewBox="0 0 25 23" fill="none" xmlns="http://www.w3.org/2000/svg">
<g id="send-fill" clip-path="url(#clip0_1842_2422)">
<path id="Vector" d="M2.34703 10.7031C2.28338 10.6266 2.24072 10.5374 2.22258 10.4429C2.20444 10.3485 2.21134 10.2515 2.24272 10.1599C2.2741 10.0684 2.32904 9.98491 2.40301 9.91645C2.47699 9.84798 2.56786 9.79648 2.66812 9.76619L17.777 7.16082C17.8944 7.1405 18.0158 7.15025 18.1275 7.18899C18.2392 7.22773 18.3368 7.29392 18.4093 7.38015C18.4819 7.46638 18.5265 7.56923 18.5382 7.67719C18.55 7.78514 18.5283 7.89392 18.4757 7.99135L11.7206 20.5261L11.6769 20.5744C11.6139 20.6447 11.5342 20.701 11.4437 20.7393C11.3532 20.7776 11.2543 20.7967 11.1545 20.7953C11.0546 20.794 10.9565 20.7721 10.8673 20.7313C10.7782 20.6905 10.7004 20.6319 10.6397 20.5599L8.21079 17.6728C7.56342 16.9034 7.69816 15.7845 8.5561 15.1693L13.0494 11.8868C13.2333 11.7494 13.4467 11.3701 13.1524 11.0204C12.8582 10.6706 12.3793 10.7607 12.204 10.882L7.52888 13.9483C7.1095 14.2274 6.58622 14.3461 6.07141 14.2791C5.5566 14.212 5.09131 13.9644 4.77546 13.5895L2.34703 10.7031Z" fill="white"/>
</g>
<defs>
<clipPath id="clip0_1842_2422">
<rect width="17.052" height="16.621" fill="white" transform="matrix(0.822131 -0.569298 0.643781 0.76521 0.0917969 10)"/>
</clipPath>
</defs>
</svg>
