<svg width="18" height="18" viewBox="0 0 18 18" fill="none" xmlns="http://www.w3.org/2000/svg">
<g id="strikethrough">
<path id="Vector" fill-rule="evenodd" clip-rule="evenodd" d="M10.5487 3.45621C9.7297 3.15561 8.7235 3.13221 7.8172 3.35361C6.4582 3.71991 5.6761 5.02851 5.8696 6.18861C6.046 7.24611 7.1449 8.55021 10.3498 8.55021C10.3579 8.55036 10.366 8.55066 10.3741 8.55111H15.5248C15.7038 8.55111 15.8755 8.62222 16.0021 8.74881C16.1287 8.8754 16.1998 9.04709 16.1998 9.22611C16.1998 9.40513 16.1287 9.57682 16.0021 9.70341C15.8755 9.82999 15.7038 9.90111 15.5248 9.90111H2.4748C2.29578 9.90111 2.12409 9.82999 1.99751 9.70341C1.87092 9.57682 1.7998 9.40513 1.7998 9.22611C1.7998 9.04709 1.87092 8.8754 1.99751 8.74881C2.12409 8.62222 2.29578 8.55111 2.4748 8.55111H5.7688C5.0848 7.96701 4.6744 7.22991 4.5376 6.41181C4.2253 4.53621 5.4673 2.58411 7.4761 2.04861L7.4824 2.04681L7.4887 2.04501C8.6155 1.76871 9.9007 1.78221 11.0122 2.18901C12.139 2.60031 13.1155 3.43191 13.4764 4.77561C13.5183 4.94688 13.4916 5.12775 13.4018 5.27955C13.3121 5.43134 13.1666 5.542 12.9963 5.58786C12.826 5.63371 12.6446 5.61113 12.4908 5.52493C12.337 5.43873 12.223 5.29576 12.1732 5.12661C11.9482 4.29411 11.3542 3.75141 10.5487 3.45621ZM13.2199 11.6588C13.1873 11.5742 13.1379 11.497 13.0748 11.4318C13.0116 11.3667 12.936 11.3149 12.8524 11.2797C12.7688 11.2444 12.679 11.2263 12.5883 11.2266C12.4975 11.2268 12.4078 11.2454 12.3244 11.2811C12.241 11.3168 12.1657 11.3689 12.1029 11.4344C12.0401 11.4999 11.9911 11.5774 11.959 11.6622C11.9268 11.747 11.912 11.8375 11.9156 11.9281C11.9192 12.0188 11.941 12.1078 11.9797 12.1898C12.2254 12.7658 12.1471 13.2743 11.8627 13.6964C11.563 14.1392 11.0005 14.5289 10.2247 14.7197C9.3346 14.9384 8.4328 14.8682 7.4986 14.6081C6.6616 14.3741 6.0469 13.7666 5.8264 12.9476C5.77663 12.7785 5.66265 12.6355 5.50883 12.5493C5.35501 12.4631 5.17356 12.4405 5.00331 12.4864C4.83305 12.5322 4.68749 12.6429 4.59777 12.7947C4.50805 12.9465 4.48129 13.1273 4.5232 13.2986C4.8724 14.5955 5.8579 15.5513 7.1359 15.9086C8.2276 16.2128 9.3733 16.319 10.5469 16.0301C11.5729 15.7781 12.4549 15.23 12.9805 14.4524C13.5205 13.6532 13.6492 12.6596 13.2199 11.6588Z" fill="#1D1C1D"/>
</g>
</svg>
